<?xml version="1.0" encoding="utf-8"?>
<!-- Generator: Adobe Illustrator 16.0.0, SVG Export Plug-In . SVG Version: 6.00 Build 0)  -->
<!DOCTYPE svg PUBLIC "-//W3C//DTD SVG 1.1//EN" "http://www.w3.org/Graphics/SVG/1.1/DTD/svg11.dtd">
<svg version="1.1" id="Capa_1" xmlns="http://www.w3.org/2000/svg" xmlns:xlink="http://www.w3.org/1999/xlink" x="0px" y="0px"
	viewBox="0 0 1026 557.27" enable-background="new 0 0 1026 557.27" xml:space="preserve">
<g>
	<path fill="#ffffff" d="M728.707,308.434c0,0-17.285-0.71-19.612,0.554c-10.815,5.871-24.99,22.304-32.508,38.358
		c-12.428,26.539-13.626,64.436-10.219,89.601c0.749,5.534,2.605,11.804,5.331,22.254c1.5,5.745-6.261,7.037-9.738,2.225
		c-3.457-4.787-7.156-17.985-8.509-29.251c-2.394-19.944-2.111-32.026,1.595-60.098c3.089-23.383,21.276-46.35,27.104-53.194
		c0.442-0.521-0.127-1.267-0.752-0.995c-14.902,6.535-30.777,19.485-42.619,36.221l-35.462-76.875h76.716
		c1.548,10.428,10.511,18.437,21.369,18.437h26.192c2.179,0,3.944-1.767,3.944-3.944v-35.368c0-2.179-1.766-3.944-3.944-3.944
		h-26.192c-7.927,0-14.838,4.278-18.604,10.638h-86.023l-60.83-131.869c-1.391-3.015-3.405-5.742-6.057-7.741
		c-9.941-7.492-21.474-2.045-24.829,6.21L442.247,263.05h-80.211c-3.765-6.359-10.676-10.638-18.602-10.638H317.24
		c-2.178,0-3.944,1.766-3.944,3.944v35.368c0,2.178,1.766,3.944,3.944,3.944h26.194c10.857,0,19.82-8.009,21.367-18.437h70.77
		l-33.364,70.855c-11.173-13.796-24.961-24.444-38.007-30.178c-0.637-0.279-1.214,0.485-0.763,1.015
		c5.867,6.901,23.984,29.819,27.064,53.151c3.707,28.071,3.99,40.153,1.596,60.098c-1.352,11.266-5.052,24.464-8.509,29.251
		c-3.477,4.813-11.237,3.521-9.738-2.225c2.726-10.45,4.582-16.72,5.332-22.254c3.408-25.165,2.209-63.062-10.219-89.601
		c-7.519-16.055-21.693-32.487-32.509-38.358c-2.327-1.264-19.611-0.554-19.611-0.554c-1.95,0-3.546,1.595-3.546,3.545v162.077
		c0,14.601,11.946,26.548,26.546,26.548h84.43c0.02,0,1.102,0,1.122,0c0.279-0.006,1.862,0.184,1.925-2.233
		c0.219-8.488,0.547-41.866,0.411-53.698c-0.119-10.338,1.311-35.953-6.117-60.63c-1.538-5.11-3.516-10.062-5.845-14.819
		l43.315-91.99H579.89l45.999,99.719c0.088,0.188,0.2,0.354,0.297,0.533c-0.825,2.156-1.582,4.342-2.251,6.558
		c-7.428,24.677-5.997,50.292-6.116,60.63c-0.135,11.832,0.191,45.21,0.41,53.698c0.063,2.417,1.646,2.228,1.927,2.233
		c0.02,0,1.101,0,1.12,0h84.431c14.601,0,26.546-11.947,26.546-26.548V311.979C732.252,310.029,730.656,308.434,728.707,308.434
		 M465.762,263.05l54.346-115.416l53.241,115.416H465.762z"/>
	<path fill="#ffffff" d="M721.01,241.976c0.959,0,1.52-0.019,1.636-0.022c4.162-0.002,6.423-0.564,7.799-1.943c1.824-1.829,1.817-4.816,1.807-9.764
		l-0.002-168.763c0-10.017-10.257-24.252-19.827-24.252l-170.604-1.199h-0.183c-4.725,0.03-8.181,0-10.568,1.242
		c-2.592,1.347-3.697,3.97-3.697,8.795c0.029,0.65,3.371,65.63,51.113,125.414C632.533,239.169,708.861,241.976,721.01,241.976
		 M643.042,89.678c1.171-3.324,4.818-5.072,8.14-3.899c3.321,1.17,5.066,4.81,3.903,8.129c-0.071,0.202-6.958,20.336-4.126,44.991
		c3.729,32.452,21.85,57.285,53.857,73.804c3.133,1.617,4.361,5.468,2.745,8.599c-1.134,2.195-3.365,3.457-5.677,3.457
		c-0.984,0-1.984-0.23-2.921-0.712c-45.098-23.276-57.925-58.644-60.744-84.217C635.192,112.374,642.72,90.591,643.042,89.678"/>
	<path fill="#ffffff" d="M322.739,241.954c0.115,0.004,0.666,0.022,1.608,0.022c11.942,0,86.969-2.807,140.097-70.492
		c46.928-59.784,50.213-124.764,50.241-125.414c0-4.826-1.086-7.448-3.634-8.795c-2.349-1.242-5.743-1.211-10.388-1.242h-0.181
		l-167.694,1.199c-9.407,0-19.489,14.235-19.489,24.252l-0.001,168.763c-0.01,4.947-0.017,7.935,1.775,9.764
		C316.426,241.389,318.647,241.952,322.739,241.954 M340.264,212.704c31.463-16.52,49.274-41.352,52.94-73.806
		c2.784-24.653-3.987-44.788-4.056-44.989c-1.143-3.32,0.573-6.959,3.836-8.129c3.265-1.172,6.85,0.575,8.001,3.899
		c0.318,0.913,7.715,22.696,4.74,50.153c-2.771,25.572-15.379,60.939-59.708,84.216c-0.92,0.481-1.904,0.712-2.872,0.712
		c-2.272,0-4.465-1.262-5.58-3.457C335.977,218.169,337.185,214.321,340.264,212.704"/>
</g>
</svg>