<?xml version="1.0" encoding="utf-8"?>
<!-- Generator: Adobe Illustrator 16.0.0, SVG Export Plug-In . SVG Version: 6.00 Build 0)  -->
<!DOCTYPE svg PUBLIC "-//W3C//DTD SVG 1.1//EN" "http://www.w3.org/Graphics/SVG/1.1/DTD/svg11.dtd">
<svg version="1.1" id="Capa_1" xmlns="http://www.w3.org/2000/svg" xmlns:xlink="http://www.w3.org/1999/xlink" x="0px" y="0px"
	 width="1026px" height="557.27px" viewBox="0 0 1026 557.27" enable-background="new 0 0 1026 557.27" xml:space="preserve">
<polygon fill="#B40714" />
<g>
	<defs>
		<rect id="SVGID_1_" width="1026" height="557.27"/>
	</defs>
	<!--<clipPath id="SVGID_2_">
		<use xlink:href="#SVGID_1_"  overflow="visible"/>
	</clipPath>-->
<!--	<path clip-path="url(#SVGID_2_)" fill="#B40714" d="M73.999,437.292v2.404H40.454v-2.404c5.336-0.238,8.302-0.885,9.711-2.488
		c1.408-1.603,1.577-3.617,1.577-7.877v-62.854h-7.209c-4.971,0-8.905,1.076-11.801,3.229c-2.896,2.153-4.05,5.564-5.464,10.235
		h-2.4l-0.178-16.853h66.279l-0.178,16.853h-2.4c-0.508-4.451-2.101-8.67-5.57-11.201c-3.454-2.521-13.725-2.263-18.695-2.263
		h-0.209l-1,61.992c0.091,4.896,0.891,6.951,2.373,8.614C67.07,436.678,70.165,436.959,73.999,437.292"/>
	<path clip-path="url(#SVGID_2_)" fill="#B40714" d="M902.021,437.292v2.404h-33.545v-2.404c5.336-0.238,8.303-0.885,9.711-2.488
		c1.408-1.603,1.577-3.617,1.577-7.877v-62.854h-7.209c-4.971,0-8.905,1.076-11.801,3.229c-2.896,2.153-4.051,5.564-5.464,10.235
		h-2.4l-0.178-16.853h66.278l-0.178,16.853h-2.4c-0.507-4.451-2.101-8.67-5.569-11.201c-3.454-2.521-13.726-2.263-18.695-2.263
		h-0.209l-1,61.992c0.092,4.896,0.892,6.951,2.373,8.614C895.093,436.678,898.187,436.959,902.021,437.292"/>
	<path clip-path="url(#SVGID_2_)" fill="#B40714" d="M746.308,384.248l2.212,0.032v27.559l-2.212-0.032
		c-0.663-10.065-4.101-11.258-15.313-11.128h-14.383v24.299c0.026,3.511,0.033,6.764,1.533,8.076
		c2.585,2.262,4.541,1.656,8.622,1.656h14.762c6.948,0.094,12.073-3.344,18.141-14.762h2.387l-6.5,19.263h-61.163v-1.317
		c4.107-0.837,7.957-1.582,9.377-3.09c2-2.125,1.848-5.118,1.848-9.619v-53.971c0-3.707-0.343-5.353-2.41-7.316
		c-1.875-1.781-5.438-1.594-8.814-1.672v-2.317h61.209v16.608h-2.386c-0.321-4.838-1.828-7.891-3.759-9.775
		c-2.625-2.563-6.579-2.331-11.032-2.331h-21.813v31.767h18.383c3.271,0,5.615-0.952,7.497-2.266
		C745.332,391.928,746.082,388.053,746.308,384.248"/>
	<path clip-path="url(#SVGID_2_)" fill="#B40714" d="M153.433,384.248l2.211,0.032v27.559l-2.211-0.032
		c-0.664-10.065-4.101-11.258-15.314-11.128h-14.382v24.299c0.025,3.511,0.032,6.764,1.532,8.076
		c2.586,2.262,4.541,1.656,8.622,1.656h14.762c6.948,0.094,12.073-3.344,18.141-14.762h2.386l-6.5,19.263h-61.162v-1.317
		c4.106-0.837,7.957-1.582,9.376-3.09c2-2.125,1.848-5.118,1.848-9.619v-53.971c0-3.707-0.343-5.353-2.41-7.316
		c-1.875-1.781-5.438-1.594-8.814-1.672v-2.317h61.208v16.608h-2.385c-0.322-4.838-1.828-7.891-3.759-9.775
		c-2.625-2.563-6.58-2.331-11.032-2.331h-21.813v31.767h18.382c3.271,0,5.615-0.952,7.497-2.266
		C152.457,391.928,153.207,388.053,153.433,384.248"/>
	<path clip-path="url(#SVGID_2_)" fill="#B40714" d="M216.661,360.4v1.404c-4.278,0.138-9.06,0.874-11.122,3.124
		c-1.292,1.409-2.303,4.456-2.303,7.799v53.436c0,3.436,0.24,6.078,2.49,7.672c2.403,1.701,8.442,1.192,13.473,1.19
		c4.15-0.165,13.267,0.597,17.934-3.44c4.609-3.986,7.312-8.25,9.396-14.253h2.4l-7.4,22.364h-60.687v-2.404
		c5.103-0.082,7.885-0.539,9.134-2.051c1.25-1.511,2.153-4.513,2.153-9.276v-52.619c0-3.709-0.671-7.309-2.01-8.797
		s-5.018-2.606-9.277-2.744V360.4H216.661z"/>
	<path clip-path="url(#SVGID_2_)" fill="#B40714" d="M326.617,370.26c-7.225-7.737-16.453-11.607-27.683-11.607
		c-11.151,0-20.33,3.87-27.535,11.607c-7.206,7.739-10.808,17.586-10.808,29.542s3.592,21.78,10.778,29.476
		s16.374,11.543,27.565,11.543c11.23,0,20.458-3.848,27.683-11.543s10.838-17.52,10.838-29.476S333.842,378,326.617,370.26
		 M317.054,427.417c-4.354,6.373-10.412,9.559-18.176,9.559c-7.9,0-13.958-3.208-18.177-9.624c-4.218-6.415-6.327-15.4-6.327-26.95
		c0-12.435,2.087-21.88,6.261-28.343c4.173-6.461,10.254-9.691,18.243-9.691c8.078,0,14.215,3.23,18.411,9.691
		c4.197,6.463,6.295,15.864,6.295,28.212C323.583,411.997,321.407,421.045,317.054,427.417"/>
	<path clip-path="url(#SVGID_2_)" fill="#B40714" d="M995.955,370.26c-7.225-7.737-16.452-11.607-27.682-11.607
		c-11.152,0-20.331,3.87-27.536,11.607c-7.206,7.739-10.808,17.586-10.808,29.542s3.593,21.78,10.777,29.476
		c7.187,7.695,16.375,11.543,27.566,11.543c11.229,0,20.457-3.848,27.682-11.543c7.226-7.695,10.839-17.52,10.839-29.476
		S1003.181,378,995.955,370.26 M986.393,427.417c-4.354,6.373-10.412,9.559-18.176,9.559c-7.899,0-13.959-3.208-18.178-9.624
		c-4.218-6.415-6.326-15.4-6.326-26.95c0-12.435,2.086-21.88,6.261-28.343c4.174-6.461,10.254-9.691,18.243-9.691
		c8.078,0,14.215,3.23,18.411,9.691c4.196,6.463,6.295,15.864,6.295,28.212C992.923,411.997,990.745,421.045,986.393,427.417"/>
	<path clip-path="url(#SVGID_2_)" fill="#B40714" d="M404.729,362.647V360.4h27.708v2.247c-11.429-0.157-10.992,3.281-10.933,13.622
		v64.389h-2.689l-51.107-62.711v48.306c0,4.393,0.253,7.066,2.4,9.23c1.677,1.689,3.462,1.68,8.671,1.81v1.403h-28.325v-1.403
		c2.282-0.123,6.198,0.313,9.264-1.951c2.118-1.564,2.503-5.209,2.503-9.514l0.006-50.337c-0.214-7.988-5.296-10.573-6.619-11.32
		c-1.795-1.012-6.693-1.635-9.292-1.523V360.4h21.685l48.016,59.162v-42.026c0-5.449,0.58-9.166-1.447-11.92
		C412.133,362.303,409.676,362.709,404.729,362.647"/>
	<path clip-path="url(#SVGID_2_)" fill="#B40714" d="M522.032,438.639v-1.293c4.038-0.559,6.108-1.396,7.413-2.293
		c1.303-0.896,1.436-2.829,0.891-4.688c-0.58-1.978-1.145-3.368-2.134-6.077l-4.456-11.059h-30.514l-3.006,7.324
		c-0.973,2.664-4.26,9.895-4.26,11.513c0,3.454,4.385,5.299,8.737,5.28v1.293h-24.903v-1.293c4.801-0.356,7.189-2.488,9.113-4.981
		c2.124-2.75,3.924-7.414,6.375-13.249l25.594-61.017h1.688l26.854,62.844c2.147,5.593,4.252,10.492,6.316,12.698
		c2.064,2.208,5.751,3.441,9.063,3.705v1.293H522.032z M495.705,408.594h26.334l-13.454-31.619L495.705,408.594z"/>
	<path clip-path="url(#SVGID_2_)" fill="#B40714" d="M609.519,438.639H563.41v-1.293c5.066-0.043,7.923-1.611,9.129-3.164
		c1.206-1.55,1.459-5.438,1.459-8.846v-52.165c0-3.582-0.232-5.769-1.709-8.118c-1.513-2.406-3.638-2.406-8.879-2.629v-2.294h38.357
		c8.259,0,14.708,1.605,19.349,4.816c4.64,3.212,8.72,8.466,8.961,14.599c0.358,9.081-2.668,15.248-14.002,18.479v0.263
		c12.089,2.578,17.732,8.612,17.732,19.709c0,6.16-2.3,11.141-6.897,14.941S617.18,438.639,609.519,438.639 M585.872,364.586v31.521
		h10.201c9.153,0.082,14.734-1.397,17.505-4.194c2.77-2.795,4.154-6.684,4.154-11.665c0-8.195-7.506-15.662-16.874-15.662H585.872z
		 M598.949,400.5h-13.077v24.05c0,6.941-0.646,7.691,2.556,9.438c1.974,1.076,8.562,1.194,12.566,1.194
		c6.232,0,12.234-2.492,14.982-5.441s4.486-7.003,4.486-12.203c0-5.154-2.227-9.637-5.634-12.386
		C610.289,401.491,604.446,400.5,598.949,400.5"/>
	<path clip-path="url(#SVGID_2_)" fill="#B40714" d="M684.086,360.13v2.294c-5.766-0.215-9.114,0.661-10.281,2.645
		c-1.407,2.391-1.063,5.351-1.063,9.938v52.33c0,3.538,0.401,5.452,1.438,6.826c1.875,2.484,7.285,2.438,10.426,2.184v2.293h-34.678
		v-1.43c3.08-0.188,6.525-0.234,8.008-1.158c1.889-1.177,2.588-3.107,2.713-4.442c0.23-2.487,0.249-4.395,0.249-7.978v-50.197
		c0-3.539,0.031-6.663-0.999-8.084c-1.031-1.419-2.719-2.906-9.971-2.926v-2.294H684.086z"/>-->
<!--	<path clip-path="url(#SVGID_2_)" fill="#B40714" d="M773.186,438.991v-2.063c7.385-0.031,11.291-0.938,11.307-10.258v-53.147
		c0-3.626,0.266-6.366-1.828-8.585c-2.188-2.317-5.2-2.291-9.491-2.291l0.013-2.164h34.903c9.144,0,14.176,1.726,19.095,5.177
		c4.919,3.45,7.379,8.301,7.379,14.548c0,4.5-1.279,8.367-3.838,11.6c-2.558,3.234-10.225,7.593-15.001,9.077v0.263
		c3.597,1.281,15.776,24.917,24.737,31.797c4.188,3.215,8.438,4.031,11.615,3.754v2.293H830.57
		c-2.772-3.509-7.48-9.896-13.922-18.938c-2.775-3.896-7.083-9.903-8.532-12c-1.449-2.098-2.437-4.031-4.218-5.344
		c-1.604-1.183-3.545-1.138-8.24-1.138v24.116c0,3.451,0.084,6.225,2.145,8.699c1.979,2.377,5.439,2.541,9.286,2.311v2.293H773.186z
		 M803.68,364.506h-8.021v33.608c1.265,0.089,5.45,0.131,6.552,0.131c5.838,0,11.579-2.474,14.72-5.567
		c2.7-2.66,4.059-6.397,4.059-12.208C820.988,370.116,813.885,364.506,803.68,364.506"/>
	<path clip-path="url(#SVGID_2_)" d="M574.344,471.928h-1.333c-0.064-0.499-0.209-1.235-0.401-1.752
		c-0.251-0.675-1.17-3.045-6.939-3.047h-1.123l-0.096,22.202c0.096,2.97,2.773,2.675,4.405,2.674v1.407h-12.944v-1.407
		c1.321-0.045,4.275,0.296,4.424-2.496l0.039-22.38c0,0-4.483-0.025-5.022,0.049c-2.063,0.281-2.649,2.003-2.946,2.67
		c-0.296,0.667-0.494,1.644-0.61,2.08h-1.353v-6.627h23.9V471.928z"/>
	<path clip-path="url(#SVGID_2_)" d="M676.58,471.928h-1.334c-0.064-0.499-0.208-1.235-0.4-1.752
		c-0.252-0.675-1.171-3.045-6.94-3.047h-1.122l-0.096,22.202c0.096,2.97,2.772,2.675,4.404,2.674v1.407h-12.944v-1.407
		c1.321-0.045,4.276,0.296,4.424-2.496l0.04-22.38c0,0-4.483-0.025-5.023,0.049c-2.063,0.281-2.649,2.003-2.945,2.67
		c-0.297,0.667-0.495,1.644-0.611,2.08h-1.352v-6.627h23.9V471.928z"/>-->
<!--	<path clip-path="url(#SVGID_2_)" d="M608.344,486.254l-0.688,7.08H583.5v-1.407c0.395-0.025,1.84-0.081,2.497-0.168
		c0.657-0.085,1.784-0.583,1.753-2.377v-20.207c0-0.437-0.072-0.823-0.218-1.159c-0.144-0.336-0.446-0.61-0.906-0.822
		c-0.355-0.172-0.179-0.195-0.776-0.327c-0.599-0.131-1.075-0.211-1.431-0.237v-1.406H606.5v6.774h-1.299
		c-0.263-1.004-0.832-2.069-1.707-3.199c-0.873-1.129-1.705-1.356-2.494-1.464c-0.408-0.053-0.895-0.093-1.459-0.118
		c-0.566-0.027-1.814-0.04-2.537-0.04h-4.398v9.785h3.155c1.013,0,3.715-0.271,4.22-0.287c0.926-0.029,2.003-0.856,2.207-1.496
		c0.203-0.641,0.346-1.402,0.412-1.971h0.963l-0.008,11.173h-1.197c-0.054-0.634-0.194-1.305-0.425-2.012
		c-0.231-0.706-0.47-1.218-0.72-1.535c-0.408-0.515-0.871-0.851-1.391-1.01c-0.52-0.158-3.208-0.238-4.062-0.238h-3.155v8.095
		c0.05,2.246,0.499,3.372,2.2,3.497c0.595,0.044,3.531,0.108,4.241,0.108s1.307-0.046,1.795-0.079
		c2.417-0.166,3.663-0.576,4.502-2.108c0.696-1.271,1.088-2.235,1.271-2.843L608.344,486.254z"/>-->
<!--	<path clip-path="url(#SVGID_2_)" d="M714.5,493.467l-8.488-0.055c-1.713-2.628-3.261-4.899-4.643-6.815
		c-1.384-1.914-2.884-3.889-4.502-5.923l-2.383-0.094v8.915c0.116,2.431,2.995,2.563,4.031,2.564v1.407l-12.755-0.055v-1.407
		c0.818,0,4.083-0.149,4.269-2.313v-20.326c0-0.462-0.067-1.037-0.203-1.394c-0.135-0.356-0.491-0.751-0.99-0.938
		c-0.938-0.352-2.697-0.467-3.075-0.494v-1.24h13.267c1.215,0,2.355,0.122,3.422,0.365c1.066,0.246,2.032,0.639,2.896,1.18
		c0.837,0.528,1.505,1.219,2.005,2.07c0.5,0.853,0.75,1.879,0.75,3.081c0,1.083-0.169,2.04-0.507,2.872s-0.837,1.552-1.499,2.159
		c-0.607,0.568-1.337,1.061-2.187,1.476c-0.852,0.416-1.789,0.771-2.815,1.061c1.417,1.836,8.117,10.589,8.598,10.965
		c0.479,0.377,0.954,0.684,1.427,0.922c0.352,0.172,0.791,0.304,1.316,0.396c0.527,0.093,1.716,0.2,2.066,0.213V493.467z
		 M703.098,472.004c0-2.156-2.051-4.383-5.732-4.383l-2.881-0.094v10.89l2.092,0.094c1.863,0,3.416-0.583,4.658-1.749
		C702.477,475.594,703.098,474.008,703.098,472.004"/>
	<path clip-path="url(#SVGID_2_)" d="M785.813,485.076l-1.629,8.337h-23.246v-1.403c0.336-0.025,0.821-0.072,1.457-0.138
		c0.636-0.066,1.079-0.15,1.332-0.257c0.419-0.171,0.723-0.422,0.911-0.751c0.188-0.328,0.283-0.751,0.283-1.264v-20.072
		c-0.108-3.273-3.605-3.122-3.983-3.148v-1h13.437v0.875c-0.391,0.014-5.124-0.125-4.989,3.075l0.321,18.45
		c0,0.87,0.046,1.545,0.137,2.025s0.304,0.854,0.64,1.117c0.321,0.236,0.799,0.391,1.436,0.465c0.636,0.071,3.727,0.084,4.287,0.068
		c5.179-0.141,6.096-2.532,6.857-3.764s0.969-1.853,1.262-2.616H785.813z"/>-->
<!--	<path clip-path="url(#SVGID_2_)" d="M631.869,464.969h1.357l10.749,25.535c0.432,1.031,1.317,1.549,2.655,1.549h0.932v1.414
		h-11.957v-1.414h0.953c1.243,0,1.86-0.07,2.374-0.322c0.351-0.176,0.527-0.445,0.527-0.811c0-0.215-0.048-0.441-0.143-0.68
		l-2.46-5.719l-10.953-0.058l-1.412,3.19c-0.364,0.906-0.546,1.623-0.546,2.152c0,0.615,0.307,1.145,0.921,1.584
		c0.615,0.441,0.869,0.662,2.045,0.662h1.013v1.414h-10.862v-1.414c1.161,0,1.825-0.236,2.5-0.709
		c0.676-0.471,1.297-1.367,1.864-2.689L631.869,464.969z M631.511,471.277l-4.972,11.267h9.5L631.511,471.277z"/>
	<path clip-path="url(#SVGID_2_)" d="M737.121,464.969h1.323l10.477,25.535c0.422,1.031,1.284,1.549,2.589,1.549h0.908v1.414
		h-11.655v-1.414h0.929c1.212,0,1.813-0.07,2.314-0.322c0.342-0.176,0.514-0.445,0.514-0.811c0-0.215-0.047-0.441-0.139-0.68
		l-2.398-5.719l-10.677-0.058l-1.375,3.19c-0.355,0.906-0.533,1.623-0.533,2.152c0,0.615,0.299,1.145,0.898,1.584
		c0.6,0.441,0.847,0.662,1.992,0.662h0.987v1.414h-10.588v-1.414c1.132,0,1.779-0.236,2.438-0.709
		c0.658-0.471,1.264-1.367,1.816-2.689L737.121,464.969z M736.771,471.277l-4.847,11.267h9.261L736.771,471.277z"/>
	<path clip-path="url(#SVGID_2_)" d="M269.336,467.915l1.451-2.581h1.325l0.547,10.735h-1.409c-0.926-3.02-2.089-5.243-3.492-6.676
		c-1.739-1.792-3.814-2.688-6.226-2.688c-2.609,0-4.733,0.999-6.374,2.995c-1.64,1.998-2.461,5.378-2.461,10.142
		c0,4.005,0.94,7.062,2.819,9.166c1.599,1.779,3.842,2.67,6.731,2.67c2.525,0,4.642-0.694,6.353-2.084
		c1.71-1.389,2.825-3.485,3.344-6.288h1.494c-0.435,3.176-1.704,5.618-3.808,7.327c-2.103,1.706-4.753,2.562-7.951,2.562
		c-2.594,0-4.974-0.561-7.141-1.679c-2.166-1.118-3.898-2.729-5.196-4.827c-1.297-2.099-1.945-4.399-1.945-6.901
		c0-2.659,0.669-5.153,2.008-7.487c1.34-2.335,3.054-4.088,5.143-5.261c2.09-1.173,4.341-1.759,6.753-1.759
		c1.346,0,2.65,0.197,3.912,0.596C266.476,466.271,267.85,466.951,269.336,467.915"/>-->
<!--	<path clip-path="url(#SVGID_2_)" d="M297.461,465.28c2.482,0,4.808,0.592,6.979,1.777c2.17,1.185,3.868,2.839,5.096,4.962
		s1.842,4.513,1.842,7.171c0,2.66-0.617,5.06-1.852,7.201c-1.234,2.14-2.93,3.81-5.086,5.007c-2.158,1.196-4.444,1.796-6.859,1.796
		c-2.363,0-4.579-0.586-6.65-1.759c-2.07-1.173-3.733-2.852-4.987-5.034c-1.254-2.185-1.881-4.604-1.881-7.264
		c0-2.622,0.607-4.989,1.821-7.1c1.215-2.112,2.877-3.767,4.988-4.963C292.982,465.877,295.179,465.28,297.461,465.28
		 M297.78,466.669c-2.588,0-4.685,0.975-6.292,2.922c-1.605,1.949-2.408,5.126-2.408,9.527c0,4.776,0.823,8.077,2.469,9.907
		c1.645,1.828,3.683,2.741,6.111,2.741c1.699,0,3.192-0.414,4.48-1.244c1.287-0.83,2.313-2.146,3.076-3.952
		c0.763-1.804,1.145-4.174,1.145-7.109c0-3.2-0.358-5.698-1.075-7.497c-0.717-1.798-1.739-3.131-3.067-3.996
		C300.892,467.102,299.412,466.669,297.78,466.669"/>
	<path clip-path="url(#SVGID_2_)" d="M321.313,465.28h9.188l9.896,21.547l9.416-21.547h8.75v1.416h-1.781
		c-0.876,0-1.541,0.118-1.844,0.358c-0.303,0.238-0.454,0.654-0.454,1.245V490.4c0,0.442,0.182,0.781,0.545,1.02
		c0.363,0.238,0.364,0.36,1.253,0.36h2.281v1.414h-12.969v-1.414h1.855c0.73,0,1.271-0.129,1.622-0.389
		c0.352-0.257,0.527-0.588,0.527-0.99v-19.705l-9.873,22.498h-1.36l-10.177-23.377v18.289c0,1.207,0.312,2.898,1.478,3.395
		c0.625,0.267,2.085,0.441,2.913,0.279v1.414h-11.266v-1.414c1.844-0.113,2.902,0.043,3.563-0.588
		c0.659-0.629,0.687-2.296,0.687-3.893v-19.253c0-0.477-0.155-0.826-0.464-1.047c-0.31-0.221-0.889-0.33-1.737-0.33l-2.049,0.026
		V465.28z"/>
	<path clip-path="url(#SVGID_2_)" d="M367.688,465.28h12.976c2.931,0,5.168,0.705,6.71,2.115c1.543,1.408,2.315,3.252,2.315,5.529
		s-0.711,4.014-2.132,5.209c-1.954,1.648-4.364,2.473-7.229,2.473l-3.702-0.028v9.531c0,0.553,0.124,0.949,0.373,1.189
		c0.332,0.301,0.776,0.453,1.334,0.453l2.001,0.028v1.414h-12.646v-1.414l2.404,0.017c0.524,0,0.908-0.112,1.152-0.333
		c0.244-0.219,0.366-0.518,0.366-0.896v-22.252c0-0.566-0.154-0.975-0.464-1.227c-0.31-0.251-0.653-0.393-1.511-0.393h-1.947V465.28
		z M376.625,478.192c0,0,3.986,0.516,6.234-1.078c1.154-0.817,1.738-2.344,1.738-4.34c0-1.611-1.035-5.457-5.581-5.832
		c-1.31-0.108-1.791-0.014-2.14,0.25s-0.251,0.425-0.251,1.079V478.192z"/>-->
<!--	<path clip-path="url(#SVGID_2_)" d="M408.827,464.696h1.297l10.276,25.535c0.413,1.031,1.259,1.549,2.538,1.549h0.891v1.414h-11.43
		v-1.414h0.91c1.188,0,1.779-0.07,2.27-0.322c0.335-0.176,0.503-0.445,0.503-0.811c0-0.215-0.045-0.441-0.136-0.68l-2.352-5.719
		l-10.47-0.057l-1.349,3.189c-0.349,0.906-0.523,1.623-0.523,2.152c0,0.616,0.294,1.145,0.881,1.584
		c0.588,0.441,0.83,0.662,1.955,0.662h0.968v1.414h-10.384v-1.414c1.11,0,1.745-0.236,2.39-0.709
		c0.646-0.471,1.239-1.367,1.782-2.689L408.827,464.696z M408.484,471.003l-4.753,11.267h9.082L408.484,471.003z"/>
	<path clip-path="url(#SVGID_2_)" d="M508.718,464.696h1.321l10.468,25.535c0.421,1.031,1.283,1.549,2.586,1.549H524v1.414h-11.645
		v-1.414h0.928c1.211,0,1.812-0.07,2.313-0.322c0.342-0.176,0.513-0.445,0.513-0.811c0-0.215-0.046-0.441-0.138-0.68l-2.396-5.719
		l-10.666-0.057l-1.375,3.189c-0.355,0.906-0.533,1.623-0.533,2.152c0,0.616,0.299,1.145,0.898,1.584
		c0.599,0.441,0.846,0.662,1.991,0.662h0.986v1.414h-10.578v-1.414c1.131,0,1.777-0.236,2.435-0.709
		c0.657-0.471,1.262-1.367,1.815-2.689L508.718,464.696z M508.368,471.003l-4.842,11.267h9.252L508.368,471.003z"/>
	<path clip-path="url(#SVGID_2_)" d="M432.563,465.28h8.188l16.73,20.725v-14.813c0-1.598-0.377-2.781-1.13-3.549
		c-0.689-0.703-1.461-0.922-2.826-0.947v-1.416h10.1v1.416c-1.032,0-1.802,0.139-2.312,0.416c-0.509,0.275-0.953,0.779-1.332,1.51
		c-0.378,0.729-0.567,1.527-0.567,2.396v22.176h-1.833l-17.018-21.598v15.846c0,1.524,0.396,2.66,1.189,3.41
		c0.793,0.748,1.639,0.882,2.707,0.928v1.414h-10.998v-1.414c1.378-0.051,2.47-0.488,3.276-1.311
		c0.805-0.822,1.209-1.832,1.209-3.025v-18.902l-0.343-0.365c-0.649-0.686-1.111-1.09-1.382-1.217
		c-0.376-0.176-0.862-0.264-1.457-0.264h-2.201V465.28z"/>-->
<!--	<path clip-path="url(#SVGID_2_)" fill="#040006" d="M454.808,458.061l-0.105,0.36c-0.36,1.233-0.978,1.376-1.411,1.376
		c-0.194,0-0.83-0.106-2.9-0.822c-1.681-0.577-2.946-0.857-3.866-0.857c-1.791,0-4.004,0.818-4.378,4.718l-0.053,0.548h1.589
		l0.104-0.36c0.344-1.183,0.993-1.319,1.451-1.319c0.282,0,0.96,0.116,2.583,0.669c1.933,0.68,3.295,1.011,4.163,1.011
		c1.216,0,2.256-0.442,3.092-1.314c0.828-0.867,1.254-2.045,1.269-3.503l0.005-0.505H454.808z"/>-->
<!--	<path clip-path="url(#SVGID_2_)" d="M473.625,465.28H485.5v1.416h-2.038c-0.905,0-1.477,0.123-1.715,0.367
		c-0.238,0.246-0.356,0.766-0.356,1.559v21.139c0,0.842,0.104,1.371,0.313,1.584c0.278,0.291,0.783,0.436,1.515,0.436h2.281v1.414
		h-11.875v-1.414h2.246c0.789,0,1.3-0.127,1.532-0.379s0.348-0.799,0.348-1.641v-21.139c0-0.807-0.104-1.303-0.313-1.492
		c-0.325-0.288-0.923-0.434-1.793-0.434h-2.02V465.28z"/>-->
<!--	<polygon clip-path="url(#SVGID_2_)" points="476.375,463.067 478.313,463.067 483.5,458.317 478.688,458.317 	"/>-->
	<path clip-path="url(#SVGID_2_)" fill="#currentColor" d="M661.216,218.104c0,0-12.188-0.5-13.828,0.391c-7.626,4.14-17.621,15.727-22.922,27.047
		c-8.763,18.713-9.607,45.434-7.205,63.178c0.528,3.902,1.837,8.323,3.759,15.691c1.058,4.051-4.414,4.962-6.866,1.568
		c-2.438-3.375-5.046-12.682-6-20.625c-1.688-14.063-1.488-22.582,1.125-42.375c2.178-16.487,15.002-32.681,19.111-37.508
		c0.312-0.366-0.09-0.892-0.53-0.7c-10.508,4.607-21.701,13.739-30.051,25.539l-25.005-54.206h54.093
		c1.092,7.353,7.411,13,15.067,13h18.469c1.536,0,2.781-1.245,2.781-2.781v-24.938c0-1.536-1.245-2.781-2.781-2.781h-18.469
		c-5.589,0-10.462,3.016-13.117,7.5h-60.655L525.3,93.123c-0.98-2.126-2.401-4.049-4.271-5.458
		c-7.01-5.282-15.141-1.442-17.507,4.379l-44.29,94.06h-56.557c-2.655-4.484-7.528-7.5-13.117-7.5h-18.469
		c-1.536,0-2.781,1.245-2.781,2.781v24.938c0,1.536,1.245,2.781,2.781,2.781h18.469c7.656,0,13.975-5.647,15.066-13h49.9
		l-23.525,49.961c-7.878-9.727-17.6-17.236-26.799-21.278c-0.449-0.197-0.856,0.342-0.538,0.715
		c4.137,4.866,16.911,21.026,19.083,37.477c2.614,19.793,2.813,28.313,1.125,42.375c-0.953,7.943-3.562,17.25-6,20.625
		c-2.451,3.394-7.923,2.482-6.866-1.568c1.922-7.368,3.231-11.789,3.759-15.691c2.403-17.744,1.558-44.465-7.205-63.178
		c-5.301-11.32-15.296-22.907-22.922-27.047c-1.641-0.891-13.828-0.391-13.828-0.391c-1.375,0-2.5,1.125-2.5,2.5v114.282
		c0,10.295,8.423,18.719,18.718,18.719h59.532c0.014,0,0.777,0,0.791,0c0.197-0.004,1.313,0.13,1.357-1.574
		c0.155-5.985,0.386-29.521,0.29-37.863c-0.084-7.289,0.924-25.351-4.313-42.75c-1.084-3.603-2.479-7.095-4.121-10.449
		l30.542-64.864h85.18l32.435,70.313c0.062,0.132,0.141,0.249,0.209,0.376c-0.582,1.52-1.115,3.061-1.587,4.624
		c-5.237,17.399-4.229,35.461-4.313,42.75c-0.096,8.343,0.135,31.878,0.289,37.863c0.044,1.704,1.16,1.57,1.358,1.574
		c0.014,0,0.776,0,0.79,0h59.532c10.295,0,18.718-8.424,18.718-18.719V220.604C663.716,219.229,662.591,218.104,661.216,218.104
		 M475.812,186.104l38.32-81.38l37.54,81.38H475.812z"/>
	<path clip-path="url(#SVGID_2_)" fill="currentColor" d="M655.789,171.245c0.676,0,1.071-0.013,1.153-0.016c2.935-0.001,4.528-0.398,5.499-1.37
		c1.286-1.29,1.281-3.396,1.273-6.885l-0.001-118.995c0-7.063-7.232-17.1-13.98-17.1l-120.294-0.846h-0.129
		c-3.331,0.021-5.769,0-7.452,0.876c-1.827,0.95-2.606,2.799-2.606,6.202c0.021,0.458,2.377,46.276,36.04,88.43
		C593.403,169.266,647.223,171.245,655.789,171.245 M600.813,63.858c0.825-2.344,3.397-3.576,5.739-2.749
		c2.342,0.825,3.572,3.391,2.752,5.732c-0.05,0.142-4.906,14.339-2.909,31.723c2.63,22.882,15.406,40.392,37.976,52.04
		c2.209,1.14,3.075,3.855,1.936,6.063c-0.8,1.548-2.373,2.437-4.003,2.437c-0.694,0-1.399-0.162-2.06-0.502
		c-31.799-16.412-40.843-41.35-42.831-59.381C595.278,79.861,600.586,64.502,600.813,63.858"/>
	<path clip-path="url(#SVGID_2_)" fill="currentColor" d="M374.966,171.229c0.081,0.003,0.47,0.016,1.134,0.016c8.42,0,61.322-1.979,98.783-49.704
		c33.089-42.154,35.405-87.972,35.425-88.43c0-3.403-0.766-5.252-2.562-6.202c-1.656-0.876-4.05-0.854-7.325-0.876h-0.127
		l-118.242,0.846c-6.633,0-13.742,10.037-13.742,17.1l-0.001,118.995c-0.007,3.489-0.012,5.595,1.252,6.885
		C370.515,170.831,372.081,171.228,374.966,171.229 M387.323,150.604c22.185-11.648,34.743-29.158,37.328-52.041
		c1.963-17.383-2.811-31.58-2.86-31.722c-0.806-2.341,0.404-4.907,2.705-5.732c2.302-0.827,4.83,0.405,5.642,2.749
		c0.224,0.644,5.44,16.003,3.342,35.363c-1.954,18.031-10.844,42.969-42.1,59.381c-0.649,0.34-1.342,0.502-2.025,0.502
		c-1.602,0-3.148-0.889-3.934-2.437C384.3,154.458,385.152,151.745,387.323,150.604"/>
</g>
</svg>
